<svg id="Calque_1" data-name="Calque 1" xmlns="http://www.w3.org/2000/svg" viewBox="0 0 222.11 70.74"><defs><style>.cls-1{fill:#fff;}.cls-2{fill:#312783;}.cls-3{fill:#e30613;}.cls-4{fill:none;stroke:#fff;stroke-miterlimit:10;stroke-width:1.5px;}</style></defs><polygon class="cls-1" points="77.22 41.89 74.78 48.43 145.44 48.43 147.62 41.89 77.22 41.89"/><polygon class="cls-2" points="6.83 41.89 6.83 48.43 74.78 48.43 77.22 41.89 6.83 41.89"/><polygon class="cls-3" points="147.62 41.89 145.44 48.43 214.11 48.43 214.11 41.89 147.62 41.89"/><line class="cls-4" x1="6.83" y1="38.2" x2="214.11" y2="38.2"/><path class="cls-1" d="M28.93,29.29l-2.46-5.52H14.31l-2.5,5.52H8.13l10.38-23h4l10.32,23Zm-10.32-15-2.76,6.05h9.07L22.1,14.17c-.29-.7-.57-1.39-.86-2.07s-.57-1.4-.85-2.17l-.89,2.25C19.21,12.89,18.92,13.6,18.61,14.3Z"/><path class="cls-1" d="M50.36,6.28a7.16,7.16,0,0,1,3.6.94,7.5,7.5,0,0,1,2.63,2.53,6.59,6.59,0,0,1,1,3.6,6.82,6.82,0,0,1-1.05,3.71,7.58,7.58,0,0,1-2.8,2.65,7.66,7.66,0,0,1-3.81,1h-8v8.61H38.4v-23Zm-.66,11a4.09,4.09,0,0,0,2.07-.53,4,4,0,0,0,1.51-1.41,3.56,3.56,0,0,0,.56-2,3.15,3.15,0,0,0-.56-1.84,4,4,0,0,0-1.51-1.32A4.51,4.51,0,0,0,49.7,9.7H41.94v7.56Z"/><path class="cls-1" d="M71.82,22.26a15,15,0,0,0,3.65,3.07,9.29,9.29,0,0,0,4.7,1.1A10.5,10.5,0,0,0,83,26a6,6,0,0,0,2.26-1.17,2.47,2.47,0,0,0,.89-2,2.41,2.41,0,0,0-1.79-2.33,24,24,0,0,0-5-1.15A15.37,15.37,0,0,1,73,17.26a5.22,5.22,0,0,1-2.35-4.63,5.33,5.33,0,0,1,1.27-3.57,8,8,0,0,1,3.4-2.3A13.23,13.23,0,0,1,80.07,6a13.41,13.41,0,0,1,5.55,1,9,9,0,0,1,3.72,3L86.9,12.56A8.85,8.85,0,0,0,84,10.1a8.24,8.24,0,0,0-4-1A8.41,8.41,0,0,0,76,10a2.58,2.58,0,0,0-1.59,2.35,2.42,2.42,0,0,0,.77,1.89,5.53,5.53,0,0,0,2.17,1.12,22.83,22.83,0,0,0,3.27.67c1.2.18,2.36.4,3.47.68a12.71,12.71,0,0,1,3,1.11,6.12,6.12,0,0,1,2.09,1.79,4.6,4.6,0,0,1,.77,2.7,6.36,6.36,0,0,1-1.22,3.88,7.8,7.8,0,0,1-3.45,2.54,13.82,13.82,0,0,1-5.26.91,15.71,15.71,0,0,1-5.88-1.05,11.48,11.48,0,0,1-4.6-3.42Z"/><path class="cls-1" d="M96.63,29.29v-23h17.42V9.7H100.18v6.08h12.06V19.2H100.18v6.67h13.87v3.42Z"/><path class="cls-1" d="M138.93,25.87v3.42H121.68v-23h3.55V25.87Z"/><path class="cls-1" d="M145.57,29.29v-23H163V9.7H149.12v6.08h12.06V19.2H149.12v6.67H163v3.42Z"/><path class="cls-1" d="M191,26.07a13.13,13.13,0,0,1-2.3,1.61,15.74,15.74,0,0,1-3.34,1.38,14.61,14.61,0,0,1-8.89-.28,12,12,0,0,1-4-2.38,11,11,0,0,1-2.65-3.73,12.21,12.21,0,0,1-.95-4.88,10.81,10.81,0,0,1,1-4.67,11.69,11.69,0,0,1,2.75-3.71,12.43,12.43,0,0,1,4-2.45,13.27,13.27,0,0,1,4.8-.87,13.75,13.75,0,0,1,4,.57,15.58,15.58,0,0,1,3.38,1.46A11.84,11.84,0,0,1,191.22,10L189,12.79a14.85,14.85,0,0,0-3.5-2.28,9.84,9.84,0,0,0-4.29-.91,9.6,9.6,0,0,0-3.24.56,8.68,8.68,0,0,0-2.79,1.63,8,8,0,0,0-2,2.58,7.6,7.6,0,0,0-.74,3.42,7.86,7.86,0,0,0,1.29,4.61,8.12,8.12,0,0,0,3.41,2.8,11.06,11.06,0,0,0,4.53.93,9.64,9.64,0,0,0,3.09-.46,11,11,0,0,0,2.47-1.15,21.49,21.49,0,0,0,1.93-1.38Z"/><path class="cls-1" d="M203.05,29.29V9.7h-7.89V6.28h19.56V9.7H206.6V29.29Z"/><path class="cls-1" d="M14.78,56.38l-.84,1.79a6.69,6.69,0,0,0-3-1c-.72,0-1.22.26-1.22.78,0,1.77,5.11.78,5.1,4.23,0,1.88-1.63,2.89-3.75,2.89a6.73,6.73,0,0,1-4.24-1.52l.87-1.77a5.64,5.64,0,0,0,3.39,1.44c.89,0,1.43-.33,1.43-.91,0-1.81-5.11-.76-5.11-4.16,0-1.74,1.49-2.83,3.71-2.83A6.89,6.89,0,0,1,14.78,56.38Z"/><path class="cls-1" d="M22.06,55.43c2.44,0,3.84,1.21,3.84,3.33s-1.4,3.52-3.84,3.52h-1.9V65H18V55.43Zm-1.9,5H22c1.21,0,1.9-.55,1.9-1.65s-.69-1.6-1.9-1.6H20.16Z"/><path class="cls-1" d="M38.55,60.23a4.93,4.93,0,0,1-5.16,4.89,4.89,4.89,0,1,1,0-9.76A4.91,4.91,0,0,1,38.55,60.23Zm-8.09,0a3,3,0,0,0,3,3,3,3,0,0,0,2.91-3,2.94,2.94,0,1,0-5.87,0Z"/><path class="cls-1" d="M46,62.28h-2.2V65H41.61V55.43h4.17c2.51,0,3.93,1.21,3.93,3.33a3.18,3.18,0,0,1-1.79,3.1L50,65H47.5Zm-.2-1.8c1.19,0,1.87-.55,1.87-1.65s-.68-1.6-1.87-1.6h-2v3.25Z"/><path class="cls-1" d="M57.31,57.27V65H55.15V57.27H52.23V55.43h8v1.84Z"/><path class="cls-1" d="M70.21,56.38l-.84,1.79a6.69,6.69,0,0,0-3-1c-.72,0-1.22.26-1.22.78,0,1.77,5.11.78,5.1,4.23,0,1.88-1.63,2.89-3.75,2.89a6.73,6.73,0,0,1-4.24-1.52l.87-1.77a5.64,5.64,0,0,0,3.39,1.44c.89,0,1.43-.33,1.43-.91,0-1.81-5.11-.76-5.11-4.16,0-1.74,1.49-2.83,3.71-2.83A6.89,6.89,0,0,1,70.21,56.38Z"/><path class="cls-1" d="M84,64a4.17,4.17,0,0,1-2.78,1.1,2.91,2.91,0,0,1-3.19-2.77c0-1.31.92-2,2-2.6a3.59,3.59,0,0,1-.84-2.15c0-1.36,1-2.26,2.66-2.26s2.64.87,2.64,2.11-1.12,2-2.27,2.61c.44.5,1,1.07,1.66,1.73a6.92,6.92,0,0,0,.72-1.6l1.35,1A8.72,8.72,0,0,1,85,62.91l1.47,1.42-1.07,1.06Zm-1.11-1.08c-.85-.85-1.52-1.55-2.07-2.15-.61.38-1,.81-1,1.41a1.42,1.42,0,0,0,1.53,1.39A2.5,2.5,0,0,0,82.93,62.94Zm-1.52-3.89c.8-.42,1.43-.88,1.43-1.59a.88.88,0,0,0-1-.88,1,1,0,0,0-1,1A2.66,2.66,0,0,0,81.41,59.05Z"/><path class="cls-1" d="M97,65l-3.77-9.59h2.33l2.62,7.24,2.63-7.24H103L99.19,65Z"/><path class="cls-1" d="M105.7,65V55.43h2.16V65Z"/><path class="cls-1" d="M118.35,65l-4.65-6.15V65h-2.07V55.43h2l4.66,6.17V55.43h2V65Z"/><path class="cls-1" d="M128.21,57.27V65h-2.16V57.27h-2.92V55.43h8v1.84Z"/><path class="cls-1" d="M134.84,63.16,134.09,65h-2.24L136,55.43h2.23l4.1,9.59H140l-.75-1.86Zm2.23-5.47-1.52,3.73h3Z"/><path class="cls-1" d="M153.05,60.19v3.68a7.11,7.11,0,0,1-3.89,1.25,4.89,4.89,0,1,1,.12-9.76,6,6,0,0,1,3.85,1.4l-1.22,1.55a4,4,0,0,0-2.63-1.07,3,3,0,1,0,0,6,4.41,4.41,0,0,0,1.88-.52V60.19Z"/><path class="cls-1" d="M158.75,57.23v2.08h4.63v1.8h-4.63v2.12H164V65h-7.46V55.43h7.31v1.8Z"/><path class="cls-1" d="M180.53,57l-1.26,1.54a3.45,3.45,0,0,0-2.49-1.25,3,3,0,0,0,0,5.91A3.67,3.67,0,0,0,179.27,62l1.27,1.39a5.61,5.61,0,0,1-3.87,1.71,4.88,4.88,0,1,1,.08-9.76A5.46,5.46,0,0,1,180.53,57Z"/><path class="cls-1" d="M185.27,63.16,184.52,65h-2.24l4.17-9.59h2.23l4.1,9.59h-2.32l-.75-1.86Zm2.23-5.47L186,61.42h3Z"/><path class="cls-1" d="M199.79,62.28h-2.2V65h-2.17V55.43h4.17c2.5,0,3.93,1.21,3.93,3.33a3.17,3.17,0,0,1-1.8,3.1L203.77,65h-2.46Zm-.2-1.8c1.19,0,1.87-.55,1.87-1.65s-.68-1.6-1.87-1.6h-2v3.25Z"/><path class="cls-1" d="M214.14,56.38l-.84,1.79a6.69,6.69,0,0,0-3-1c-.72,0-1.22.26-1.22.78,0,1.77,5.12.78,5.1,4.23,0,1.88-1.63,2.89-3.75,2.89a6.75,6.75,0,0,1-4.24-1.52l.87-1.77a5.64,5.64,0,0,0,3.39,1.44c.9,0,1.43-.33,1.43-.91,0-1.81-5.11-.76-5.11-4.16,0-1.74,1.49-2.83,3.71-2.83A6.89,6.89,0,0,1,214.14,56.38Z"/></svg>